<?xml version="1.0" encoding="utf-8"?>
<!-- Generator: Adobe Illustrator 23.0.3, SVG Export Plug-In . SVG Version: 6.00 Build 0)  -->
<svg version="1.0" id="Camada_1" xmlns="http://www.w3.org/2000/svg" xmlns:xlink="http://www.w3.org/1999/xlink" x="0px" y="0px"
	 viewBox="0 0 164.1 50" style="enable-background:new 0 0 164.1 50;" xml:space="preserve">
<style type="text/css">
	.st0{fill:#FFFFFF;}
</style>
<g>
	<g>
		<path class="st0" d="M73.8,11c0,0.2,0,0.4,0,0.5c0,0.1,0,0.3-0.1,0.4c0,0.1-0.1,0.2-0.1,0.2c0,0-0.1,0.1-0.2,0.1
			c-0.1,0-0.2-0.1-0.4-0.2c-0.2-0.1-0.5-0.3-0.8-0.4c-0.3-0.1-0.7-0.3-1.2-0.4C70.5,11,70,11,69.3,11c-0.7,0-1.3,0.1-1.8,0.3
			c-0.5,0.2-1,0.6-1.4,1c-0.4,0.4-0.7,0.9-0.9,1.5c-0.2,0.6-0.3,1.2-0.3,2c0,0.8,0.1,1.5,0.3,2.1c0.2,0.6,0.5,1.1,0.9,1.5
			s0.8,0.7,1.4,0.9c0.5,0.2,1.1,0.3,1.7,0.3c0.3,0,0.6,0,0.9-0.1c0.3-0.1,0.6-0.2,0.8-0.3V17h-2.6c-0.1,0-0.2-0.1-0.3-0.2
			c-0.1-0.2-0.1-0.4-0.1-0.8c0-0.2,0-0.4,0-0.5c0-0.1,0-0.2,0.1-0.3c0-0.1,0.1-0.1,0.1-0.2c0,0,0.1-0.1,0.2-0.1h4.6
			c0.1,0,0.2,0,0.3,0.1c0.1,0,0.2,0.1,0.2,0.2c0.1,0.1,0.1,0.2,0.2,0.3c0,0.1,0.1,0.2,0.1,0.4v5.5c0,0.2,0,0.4-0.1,0.6
			c-0.1,0.2-0.2,0.3-0.5,0.4c-0.2,0.1-0.5,0.2-0.9,0.3c-0.3,0.1-0.7,0.2-1.1,0.3c-0.4,0.1-0.7,0.1-1.1,0.2c-0.4,0-0.7,0.1-1.1,0.1
			c-1.1,0-2.1-0.2-2.9-0.5c-0.9-0.3-1.6-0.8-2.2-1.4c-0.6-0.6-1.1-1.3-1.4-2.2c-0.3-0.9-0.5-1.8-0.5-2.9c0-1.1,0.2-2.1,0.5-3
			c0.3-0.9,0.8-1.7,1.4-2.3c0.6-0.6,1.4-1.1,2.3-1.4c0.9-0.3,1.9-0.5,2.9-0.5c0.6,0,1.1,0,1.6,0.1c0.5,0.1,0.9,0.2,1.3,0.3
			c0.4,0.1,0.7,0.2,0.9,0.4c0.2,0.1,0.4,0.3,0.5,0.4c0.1,0.1,0.2,0.2,0.2,0.4C73.8,10.4,73.8,10.7,73.8,11z"/>
		<path class="st0" d="M91.3,21.6c0,0.2,0,0.4,0,0.5c0,0.1,0,0.2-0.1,0.3c0,0.1-0.1,0.1-0.1,0.2c-0.1,0-0.1,0.1-0.2,0.1H84
			c-0.2,0-0.4-0.1-0.6-0.2c-0.2-0.1-0.2-0.4-0.2-0.7v-12c0-0.3,0.1-0.5,0.2-0.7C83.6,9,83.8,8.9,84,8.9h6.9c0.1,0,0.1,0,0.2,0.1
			c0,0,0.1,0.1,0.1,0.2c0,0.1,0.1,0.2,0.1,0.3c0,0.1,0,0.3,0,0.5c0,0.2,0,0.4,0,0.5c0,0.1,0,0.2-0.1,0.3c0,0.1-0.1,0.1-0.1,0.2
			c0,0-0.1,0.1-0.2,0.1H86v3.4h4.2c0.1,0,0.1,0,0.2,0.1c0.1,0,0.1,0.1,0.1,0.2c0,0.1,0.1,0.2,0.1,0.3c0,0.1,0,0.3,0,0.5
			c0,0.2,0,0.4,0,0.5c0,0.1,0,0.2-0.1,0.3c0,0.1-0.1,0.1-0.1,0.2c-0.1,0-0.1,0.1-0.2,0.1H86v3.9h4.9c0.1,0,0.1,0,0.2,0.1
			c0.1,0,0.1,0.1,0.1,0.2c0,0.1,0.1,0.2,0.1,0.3C91.3,21.2,91.3,21.4,91.3,21.6z"/>
		<path class="st0" d="M108.3,18.5c0,0.7-0.1,1.4-0.4,1.9c-0.3,0.5-0.6,1-1.1,1.4c-0.5,0.4-1,0.6-1.6,0.8c-0.6,0.2-1.3,0.3-2,0.3
			c-0.5,0-0.9,0-1.3-0.1c-0.4-0.1-0.8-0.2-1.1-0.3c-0.3-0.1-0.6-0.2-0.8-0.3c-0.2-0.1-0.4-0.2-0.5-0.3c-0.1-0.1-0.2-0.2-0.2-0.4
			c0-0.2-0.1-0.4-0.1-0.7c0-0.2,0-0.4,0-0.6c0-0.1,0-0.3,0.1-0.4c0-0.1,0.1-0.2,0.1-0.2c0.1,0,0.1-0.1,0.2-0.1
			c0.1,0,0.2,0.1,0.4,0.2c0.2,0.1,0.4,0.2,0.7,0.4c0.3,0.1,0.6,0.3,1,0.4c0.4,0.1,0.8,0.2,1.4,0.2c0.3,0,0.6,0,0.9-0.1
			c0.3-0.1,0.5-0.2,0.7-0.3c0.2-0.1,0.3-0.3,0.4-0.6c0.1-0.2,0.1-0.5,0.1-0.7c0-0.3-0.1-0.6-0.3-0.8c-0.2-0.2-0.4-0.4-0.7-0.6
			c-0.3-0.2-0.6-0.3-0.9-0.5c-0.3-0.2-0.7-0.3-1.1-0.5s-0.7-0.4-1.1-0.6c-0.3-0.2-0.7-0.5-0.9-0.8c-0.3-0.3-0.5-0.7-0.7-1.1
			c-0.2-0.4-0.3-0.9-0.3-1.5c0-0.7,0.1-1.2,0.4-1.7c0.2-0.5,0.6-0.9,1-1.2c0.4-0.3,0.9-0.6,1.5-0.7c0.6-0.2,1.2-0.2,1.8-0.2
			c0.3,0,0.7,0,1,0.1c0.3,0,0.6,0.1,0.9,0.2s0.5,0.2,0.8,0.3c0.2,0.1,0.4,0.2,0.4,0.3c0.1,0.1,0.1,0.1,0.1,0.2c0,0,0,0.1,0.1,0.2
			c0,0.1,0,0.2,0,0.3c0,0.1,0,0.3,0,0.5c0,0.2,0,0.4,0,0.5c0,0.1,0,0.3-0.1,0.4c0,0.1-0.1,0.2-0.1,0.2c0,0-0.1,0.1-0.2,0.1
			c-0.1,0-0.2,0-0.4-0.1c-0.2-0.1-0.4-0.2-0.6-0.3c-0.2-0.1-0.5-0.2-0.9-0.3c-0.3-0.1-0.7-0.1-1.1-0.1c-0.3,0-0.6,0-0.8,0.1
			c-0.2,0.1-0.4,0.2-0.6,0.3c-0.2,0.1-0.3,0.3-0.3,0.5c-0.1,0.2-0.1,0.4-0.1,0.6c0,0.3,0.1,0.6,0.2,0.8c0.2,0.2,0.4,0.4,0.7,0.6
			c0.3,0.2,0.6,0.3,1,0.5c0.4,0.2,0.7,0.3,1.1,0.5s0.7,0.4,1.1,0.6c0.4,0.2,0.7,0.5,0.9,0.8c0.3,0.3,0.5,0.7,0.7,1.1
			C108.2,17.5,108.3,18,108.3,18.5z"/>
		<path class="st0" d="M125.9,10.1c0,0.2,0,0.4,0,0.5c0,0.1,0,0.3-0.1,0.4c0,0.1-0.1,0.2-0.1,0.2c-0.1,0-0.1,0.1-0.2,0.1H122v11.1
			c0,0.1,0,0.1-0.1,0.2c0,0.1-0.1,0.1-0.2,0.1c-0.1,0-0.2,0.1-0.4,0.1c-0.2,0-0.4,0-0.7,0c-0.3,0-0.5,0-0.7,0c-0.2,0-0.3,0-0.4-0.1
			c-0.1,0-0.2-0.1-0.2-0.1c0-0.1-0.1-0.1-0.1-0.2V11.2h-3.4c-0.1,0-0.1,0-0.2-0.1c0,0-0.1-0.1-0.1-0.2c0-0.1-0.1-0.2-0.1-0.4
			c0-0.1,0-0.3,0-0.5c0-0.2,0-0.4,0-0.5c0-0.1,0-0.3,0.1-0.4c0-0.1,0.1-0.2,0.1-0.2c0,0,0.1-0.1,0.2-0.1h9.7c0.1,0,0.1,0,0.2,0.1
			c0.1,0,0.1,0.1,0.1,0.2c0,0.1,0.1,0.2,0.1,0.4S125.9,9.8,125.9,10.1z"/>
		<path class="st0" d="M143.6,21.6c0.1,0.3,0.1,0.5,0.2,0.6c0,0.1,0,0.3-0.1,0.3c-0.1,0.1-0.2,0.1-0.4,0.1c-0.2,0-0.5,0-0.8,0
			c-0.4,0-0.6,0-0.8,0c-0.2,0-0.4,0-0.5-0.1c-0.1,0-0.2-0.1-0.2-0.1c0-0.1-0.1-0.1-0.1-0.2l-0.9-2.8h-5.2l-0.9,2.7
			c0,0.1-0.1,0.2-0.1,0.2c0,0.1-0.1,0.1-0.2,0.2c-0.1,0-0.2,0.1-0.4,0.1c-0.2,0-0.4,0-0.7,0c-0.3,0-0.6,0-0.8,0
			c-0.2,0-0.3-0.1-0.4-0.2c-0.1-0.1-0.1-0.2-0.1-0.3c0-0.1,0.1-0.3,0.2-0.6l4.2-12.2c0-0.1,0.1-0.2,0.1-0.3c0.1-0.1,0.1-0.1,0.3-0.2
			c0.1,0,0.3-0.1,0.5-0.1c0.2,0,0.5,0,0.9,0c0.4,0,0.8,0,1,0c0.2,0,0.4,0,0.6,0.1c0.1,0,0.2,0.1,0.3,0.2c0.1,0.1,0.1,0.2,0.2,0.3
			L143.6,21.6z M139.6,5.3c0-0.1,0.1-0.2,0.2-0.2c0.1,0,0.3-0.1,0.7-0.1s0.5,0,0.6,0.1c0.1,0.1,0.2,0.2,0.2,0.3
			c0,0.8-0.2,1.4-0.6,1.9c-0.4,0.4-1,0.6-1.7,0.6c-0.4,0-0.7-0.1-1-0.2c-0.3-0.1-0.5-0.2-0.7-0.4c-0.2-0.1-0.4-0.3-0.6-0.4
			c-0.2-0.1-0.4-0.2-0.6-0.2c-0.2,0-0.4,0.1-0.5,0.2c-0.1,0.1-0.2,0.3-0.2,0.6c0,0.1,0,0.1,0,0.1c0,0-0.1,0.1-0.2,0.1
			c-0.1,0-0.2,0-0.3,0c-0.1,0-0.2,0-0.4,0c-0.3,0-0.5,0-0.6-0.1c-0.1-0.1-0.2-0.2-0.2-0.3c0-0.4,0.1-0.8,0.2-1.1
			c0.1-0.3,0.3-0.6,0.5-0.8c0.2-0.2,0.4-0.4,0.7-0.5c0.3-0.1,0.6-0.2,1-0.2c0.4,0,0.7,0.1,1,0.2c0.3,0.1,0.5,0.2,0.7,0.4
			c0.2,0.1,0.4,0.3,0.6,0.4c0.2,0.1,0.4,0.2,0.6,0.2c0.2,0,0.4-0.1,0.5-0.2C139.5,5.8,139.6,5.6,139.6,5.3z M137.3,11.5L137.3,11.5
			l-2,5.8h3.9L137.3,11.5z"/>
		<path class="st0" d="M164.1,15.6c0,1.1-0.1,2.2-0.4,3.1c-0.3,0.9-0.7,1.7-1.3,2.3c-0.6,0.6-1.3,1.1-2.1,1.4
			c-0.8,0.3-1.8,0.5-2.9,0.5c-1.1,0-2-0.1-2.8-0.4c-0.8-0.3-1.5-0.7-2-1.3c-0.5-0.6-0.9-1.3-1.2-2.2c-0.3-0.9-0.4-1.9-0.4-3.1
			c0-1.1,0.1-2.1,0.4-3c0.3-0.9,0.7-1.6,1.3-2.3c0.6-0.6,1.3-1.1,2.1-1.4c0.8-0.3,1.8-0.5,2.9-0.5c1,0,2,0.1,2.8,0.4
			c0.8,0.3,1.5,0.7,2,1.3c0.5,0.6,0.9,1.3,1.2,2.2C163.9,13.4,164.1,14.4,164.1,15.6z M161.1,15.8c0-0.7-0.1-1.4-0.2-2
			c-0.1-0.6-0.3-1.1-0.6-1.5c-0.3-0.4-0.6-0.7-1.1-1c-0.5-0.2-1-0.3-1.7-0.3c-0.7,0-1.3,0.1-1.7,0.4c-0.5,0.3-0.8,0.6-1.1,1
			c-0.3,0.4-0.5,0.9-0.6,1.5c-0.1,0.6-0.2,1.2-0.2,1.8c0,0.8,0.1,1.4,0.2,2c0.1,0.6,0.3,1.1,0.6,1.5c0.3,0.4,0.6,0.7,1.1,1
			c0.5,0.2,1,0.3,1.7,0.3c0.7,0,1.3-0.1,1.7-0.4c0.5-0.3,0.8-0.6,1.1-1c0.3-0.4,0.5-1,0.6-1.5C161.1,17.1,161.1,16.4,161.1,15.8z"/>
		<path class="st0" d="M73.4,37.3c0,1.2-0.1,2.2-0.4,3.1c-0.3,0.9-0.7,1.6-1.3,2.2s-1.3,1-2.1,1.3c-0.8,0.3-1.8,0.5-3,0.5h-2.7
			c-0.1,0-0.3,0-0.4-0.1c-0.1-0.1-0.2-0.3-0.2-0.5V31.3c0-0.3,0.1-0.4,0.2-0.5c0.1-0.1,0.3-0.1,0.4-0.1h2.9c1.2,0,2.2,0.2,3,0.5
			c0.8,0.3,1.5,0.8,2,1.4c0.5,0.6,1,1.3,1.2,2.1C73.3,35.4,73.4,36.3,73.4,37.3z M72,37.4c0-0.8-0.1-1.5-0.3-2.2
			c-0.2-0.7-0.5-1.3-0.9-1.8c-0.4-0.5-1-0.9-1.6-1.2c-0.6-0.3-1.5-0.4-2.5-0.4h-2.1v11.4h2.1c0.9,0,1.7-0.1,2.4-0.3
			c0.6-0.2,1.2-0.6,1.6-1.1c0.4-0.5,0.8-1.1,1-1.8C71.9,39.3,72,38.4,72,37.4z"/>
		<path class="st0" d="M85.9,43.8c0,0.1,0,0.2,0,0.2c0,0.1,0,0.1-0.1,0.2c0,0-0.1,0.1-0.1,0.1c0,0-0.1,0-0.1,0h-6.4
			c-0.1,0-0.3,0-0.4-0.1c-0.1-0.1-0.2-0.3-0.2-0.5V31.3c0-0.3,0.1-0.4,0.2-0.5c0.1-0.1,0.3-0.1,0.4-0.1h6.3c0,0,0.1,0,0.1,0
			c0,0,0.1,0.1,0.1,0.1c0,0,0,0.1,0.1,0.2c0,0.1,0,0.2,0,0.3c0,0.1,0,0.2,0,0.2c0,0.1,0,0.1-0.1,0.2c0,0-0.1,0.1-0.1,0.1
			c0,0-0.1,0-0.1,0h-5.6v4.8h4.9c0.1,0,0.1,0,0.1,0c0,0,0.1,0.1,0.1,0.1c0,0,0,0.1,0.1,0.2c0,0.1,0,0.2,0,0.3c0,0.1,0,0.2,0,0.2
			c0,0.1,0,0.1-0.1,0.2c0,0-0.1,0.1-0.1,0.1c0,0-0.1,0-0.1,0h-4.9v5.5h5.7c0,0,0.1,0,0.1,0c0,0,0.1,0.1,0.1,0.1c0,0,0.1,0.1,0.1,0.2
			C85.9,43.6,85.9,43.7,85.9,43.8z"/>
		<path class="st0" d="M104.8,43.8c0,0.1,0,0.2,0,0.3c0,0.1,0,0.1-0.1,0.2c0,0.1-0.1,0.1-0.1,0.1c0,0-0.1,0-0.1,0h-6
			c-0.1,0-0.3,0-0.4-0.1c-0.1-0.1-0.2-0.3-0.2-0.5V30.9c0,0,0-0.1,0-0.1c0,0,0.1-0.1,0.1-0.1c0,0,0.1,0,0.2-0.1c0.1,0,0.2,0,0.3,0
			c0.1,0,0.2,0,0.3,0c0.1,0,0.1,0,0.2,0.1c0,0,0.1,0,0.1,0.1c0,0,0,0.1,0,0.1v12.4h5.3c0.1,0,0.1,0,0.1,0c0,0,0.1,0.1,0.1,0.1
			c0,0,0,0.1,0.1,0.2C104.8,43.6,104.8,43.7,104.8,43.8z"/>
		<path class="st0" d="M116.4,43.8c0,0.1,0,0.2,0,0.2c0,0.1,0,0.1-0.1,0.2c0,0-0.1,0.1-0.1,0.1c0,0-0.1,0-0.1,0h-6.4
			c-0.1,0-0.3,0-0.4-0.1c-0.1-0.1-0.2-0.3-0.2-0.5V31.3c0-0.3,0.1-0.4,0.2-0.5c0.1-0.1,0.3-0.1,0.4-0.1h6.3c0,0,0.1,0,0.1,0
			c0,0,0.1,0.1,0.1,0.1c0,0,0,0.1,0.1,0.2c0,0.1,0,0.2,0,0.3c0,0.1,0,0.2,0,0.2c0,0.1,0,0.1-0.1,0.2c0,0-0.1,0.1-0.1,0.1
			c0,0-0.1,0-0.1,0h-5.6v4.8h4.9c0.1,0,0.1,0,0.1,0c0,0,0.1,0.1,0.1,0.1c0,0,0,0.1,0.1,0.2c0,0.1,0,0.2,0,0.3c0,0.1,0,0.2,0,0.2
			c0,0.1,0,0.1-0.1,0.2c0,0-0.1,0.1-0.1,0.1c0,0-0.1,0-0.1,0h-4.9v5.5h5.7c0,0,0.1,0,0.1,0c0,0,0.1,0.1,0.1,0.1c0,0,0.1,0.1,0.1,0.2
			C116.4,43.6,116.4,43.7,116.4,43.8z"/>
		<path class="st0" d="M122.9,44.2c0,0,0,0.1,0,0.1c0,0-0.1,0.1-0.1,0.1c0,0-0.1,0-0.2,0.1c-0.1,0-0.2,0-0.3,0c-0.1,0-0.2,0-0.3,0
			c-0.1,0-0.2,0-0.2-0.1c0,0-0.1,0-0.1-0.1c0,0,0-0.1,0-0.1V30.9c0,0,0-0.1,0-0.1c0,0,0.1-0.1,0.1-0.1c0.1,0,0.1,0,0.2-0.1
			c0.1,0,0.2,0,0.3,0c0.1,0,0.2,0,0.3,0c0.1,0,0.1,0,0.2,0.1c0,0,0.1,0,0.1,0.1c0,0,0,0.1,0,0.1V44.2z"/>
		<path class="st0" d="M137.2,31.3c0,0.1,0,0.2,0,0.2c0,0.1,0,0.1-0.1,0.2c0,0-0.1,0.1-0.1,0.1c0,0-0.1,0-0.1,0h-4.1v12.4
			c0,0,0,0.1,0,0.1c0,0-0.1,0.1-0.1,0.1c0,0-0.1,0-0.2,0.1c-0.1,0-0.2,0-0.3,0c-0.1,0-0.2,0-0.3,0c-0.1,0-0.2,0-0.2-0.1
			c0,0-0.1,0-0.1-0.1c0,0,0-0.1,0-0.1V31.8h-4.1c-0.1,0-0.1,0-0.1,0c0,0-0.1-0.1-0.1-0.1c0,0,0-0.1-0.1-0.2c0-0.1,0-0.2,0-0.2
			c0-0.1,0-0.2,0-0.3c0-0.1,0-0.1,0.1-0.2c0,0,0.1-0.1,0.1-0.1c0,0,0.1,0,0.1,0h9.5c0,0,0.1,0,0.1,0c0,0,0.1,0.1,0.1,0.1
			c0,0,0,0.1,0.1,0.2C137.2,31.1,137.2,31.2,137.2,31.3z"/>
		<path class="st0" d="M151.8,37.4c0,1.1-0.1,2.1-0.4,3c-0.3,0.9-0.6,1.6-1.1,2.3c-0.5,0.6-1.1,1.1-1.9,1.4
			c-0.8,0.3-1.7,0.5-2.7,0.5c-1,0-1.9-0.2-2.6-0.5c-0.7-0.3-1.3-0.8-1.8-1.4c-0.5-0.6-0.8-1.3-1-2.2c-0.2-0.9-0.3-1.8-0.3-2.9
			c0-1.1,0.1-2.1,0.4-2.9c0.2-0.9,0.6-1.6,1.1-2.2c0.5-0.6,1.1-1.1,1.9-1.4c0.8-0.3,1.7-0.5,2.7-0.5c1,0,1.9,0.2,2.6,0.5
			c0.7,0.3,1.3,0.8,1.8,1.4c0.5,0.6,0.8,1.3,1.1,2.2C151.6,35.3,151.8,36.3,151.8,37.4z M150.4,37.5c0-0.8-0.1-1.6-0.2-2.3
			c-0.2-0.7-0.4-1.3-0.8-1.9c-0.4-0.5-0.8-0.9-1.4-1.2c-0.6-0.3-1.3-0.5-2.2-0.5c-0.8,0-1.6,0.2-2.2,0.5c-0.6,0.3-1.1,0.7-1.4,1.3
			c-0.4,0.5-0.6,1.2-0.8,1.9c-0.2,0.7-0.2,1.5-0.2,2.2c0,0.8,0.1,1.6,0.2,2.3c0.1,0.7,0.4,1.3,0.7,1.9c0.3,0.5,0.8,0.9,1.4,1.2
			c0.6,0.3,1.3,0.5,2.2,0.5c0.9,0,1.6-0.2,2.2-0.5c0.6-0.3,1.1-0.8,1.4-1.3c0.4-0.5,0.6-1.2,0.8-1.9C150.3,39,150.4,38.3,150.4,37.5
			z"/>
		<path class="st0" d="M163.9,40.7c0,0.6-0.1,1.2-0.3,1.6c-0.2,0.5-0.5,0.9-0.9,1.2c-0.4,0.3-0.9,0.6-1.4,0.8
			c-0.5,0.2-1.1,0.3-1.8,0.3c-0.4,0-0.9,0-1.2-0.1c-0.4-0.1-0.7-0.2-1-0.3c-0.3-0.1-0.6-0.2-0.8-0.3c-0.2-0.1-0.4-0.2-0.4-0.3
			c-0.1-0.1-0.1-0.2-0.2-0.3c0-0.1-0.1-0.2-0.1-0.4c0-0.1,0-0.2,0-0.3c0-0.1,0-0.1,0.1-0.2c0,0,0.1-0.1,0.1-0.1c0,0,0.1,0,0.1,0
			c0.1,0,0.2,0.1,0.4,0.2c0.2,0.1,0.4,0.3,0.7,0.4c0.3,0.1,0.6,0.3,1,0.4c0.4,0.1,0.9,0.2,1.4,0.2c0.4,0,0.8-0.1,1.2-0.2
			c0.4-0.1,0.7-0.3,0.9-0.5c0.3-0.2,0.5-0.5,0.6-0.8c0.1-0.3,0.2-0.7,0.2-1.1c0-0.4-0.1-0.8-0.3-1.1c-0.2-0.3-0.4-0.6-0.7-0.8
			c-0.3-0.2-0.6-0.4-1-0.6c-0.4-0.2-0.8-0.4-1.2-0.6c-0.4-0.2-0.8-0.4-1.2-0.6c-0.4-0.2-0.7-0.5-1-0.8c-0.3-0.3-0.5-0.6-0.7-1
			c-0.2-0.4-0.3-0.9-0.3-1.4c0-0.5,0.1-1,0.3-1.4c0.2-0.4,0.5-0.8,0.8-1.1c0.3-0.3,0.8-0.5,1.2-0.7c0.5-0.2,1-0.2,1.6-0.2
			c0.3,0,0.6,0,0.9,0.1c0.3,0.1,0.6,0.1,0.8,0.2c0.3,0.1,0.5,0.2,0.7,0.3c0.2,0.1,0.3,0.2,0.4,0.3c0.1,0.1,0.1,0.1,0.1,0.1
			c0,0,0,0.1,0,0.1c0,0,0,0.1,0,0.2c0,0.1,0,0.2,0,0.2c0,0.1,0,0.2,0,0.2c0,0.1,0,0.1,0,0.2c0,0.1,0,0.1-0.1,0.1c0,0-0.1,0-0.1,0
			c-0.1,0-0.2-0.1-0.4-0.2c-0.2-0.1-0.4-0.2-0.6-0.3c-0.2-0.1-0.5-0.2-0.9-0.3c-0.3-0.1-0.7-0.2-1.1-0.2c-0.4,0-0.8,0.1-1.1,0.2
			c-0.3,0.1-0.6,0.3-0.8,0.5c-0.2,0.2-0.4,0.4-0.5,0.7c-0.1,0.3-0.2,0.5-0.2,0.8c0,0.4,0.1,0.8,0.3,1.1c0.2,0.3,0.4,0.6,0.7,0.8
			c0.3,0.2,0.6,0.4,1,0.6c0.4,0.2,0.8,0.4,1.2,0.6c0.4,0.2,0.8,0.4,1.2,0.6c0.4,0.2,0.7,0.5,1,0.8c0.3,0.3,0.5,0.6,0.7,1
			C163.8,39.7,163.9,40.2,163.9,40.7z"/>
	</g>
	<g>
		<path class="st0" d="M22.5,11c-6.7,1.3-11.7,7.3-11.4,14.5c0.3,7.2,6.2,13.1,13.4,13.4c6.6,0.3,12.3-4,14.1-10
			c0.2-0.7-0.3-1.4-1-1.4H25.4c-1.6,0-2.9-1.3-2.9-2.9V11z"/>
		<path class="st0" d="M28,0.1v5.4l0,0V21c0,0.6,0.5,1.1,1.1,1.1h12.8c1.6,0,2.9,1.3,2.9,2.9v0c0,11.2-9.3,20.2-20.7,19.7
			C14,44.2,5.8,35.9,5.4,25.8C4.9,15.4,12.6,6.7,22.5,5.4V0C9.5,1.3-0.6,12.6,0,26.1C0.6,39.1,11.4,49.7,24.5,50
			c14.1,0.3,25.7-11,25.7-25.1C50.1,12.1,40.5,1.5,28,0.1z"/>
	</g>
</g>
</svg>
