<?xml version="1.0" encoding="utf-8"?>
<!-- Generator: Adobe Illustrator 26.0.1, SVG Export Plug-In . SVG Version: 6.00 Build 0)  -->
<svg version="1.1" id="Layer_1" xmlns="http://www.w3.org/2000/svg" xmlns:xlink="http://www.w3.org/1999/xlink" x="0px" y="0px"
	 viewBox="0 0 189.9 165.4" style="enable-background:new 0 0 189.9 165.4;" xml:space="preserve">
<style type="text/css">
	.st0{fill:url(#SVGID_1_);}
	.st1{fill:url(#SVGID_00000045585992691158098910000001514638552214923437_);}
	.st2{fill:url(#SVGID_00000011748854296878485400000008144842313494164110_);}
	.st3{fill:url(#SVGID_00000100363882915155756950000011654518696757170850_);}
</style>
<g>
	<g>
		<linearGradient id="SVGID_1_" gradientUnits="userSpaceOnUse" x1="94.7152" y1="62.5071" x2="94.7152" y2="130.0347">
			<stop  offset="0" style="stop-color:#00A99D"/>
			<stop  offset="1" style="stop-color:#39566B"/>
		</linearGradient>
		<path class="st0" d="M47,120.8c11.2,13.3,23.1,26,34.9,38.8c7.1,7.7,18.5,7.9,25.6,0.2c11.8-12.7,23.7-25.6,34.8-38.9
			c-14.4,2.1-30.5,3.2-47.5,3.2C77.8,124.1,61.5,122.9,47,120.8z"/>
		
			<linearGradient id="SVGID_00000134942396921396805770000010181177094932809872_" gradientUnits="userSpaceOnUse" x1="94.9549" y1="62.5071" x2="94.9549" y2="130.0347">
			<stop  offset="0" style="stop-color:#00A99D"/>
			<stop  offset="1" style="stop-color:#39566B"/>
		</linearGradient>
		<path style="fill:url(#SVGID_00000134942396921396805770000010181177094932809872_);" d="M164.9,75.7c-0.9-8.4-4.5-16.7-10.3-23.9
			c-13.9-17.2-37.2-17.1-51.4-0.2c-1.5,1.8-1.4,4.4,0.1,6.1c5.8,6.6,11.7,13.2,17.1,20.2c0.3,0.4,0.6,0.9,0.8,1.5
			c1.4,4.2-3.7,8-7.2,5.3c-0.2-0.2-0.4-0.4-0.6-0.6C103.2,73,93.4,61.5,83.6,50c-11.1-12.9-27.3-14.9-41.3-4.8
			c-10.2,7.3-16.4,18.7-17.4,30.6C9.4,79.8,0,85.2,0,91.1c0,7.6,15.5,14.3,39.4,18.5c0,0,0,0,0,0c0.1,0,0.2,0,0.3,0.1
			c3.7,0.6,7.6,1.2,11.6,1.7c0.3,0,0.5,0.1,0.8,0.1c2,0.2,4.1,0.5,6.2,0.7c0,0,0.1,0,0.1,0c2,0.2,4.1,0.4,6.2,0.6
			c0.3,0,0.7,0.1,1,0.1c2.1,0.2,4.2,0.3,6.4,0.4c0.3,0,0.7,0,1,0.1c2,0.1,4,0.2,6,0.3c0.3,0,0.6,0,0.9,0c2.2,0.1,4.4,0.1,6.6,0.2
			c0.5,0,1,0,1.5,0c2.3,0,4.6,0.1,6.9,0.1c2.3,0,4.5,0,6.8-0.1c0.5,0,1,0,1.5,0c2.2,0,4.4-0.1,6.5-0.2c0.3,0,0.6,0,0.9,0
			c2-0.1,3.9-0.2,5.8-0.3c0.4,0,0.8,0,1.3-0.1c2.1-0.1,4.2-0.3,6.2-0.4c0.4,0,0.8-0.1,1.1-0.1c1.9-0.1,3.7-0.3,5.5-0.5
			c0.3,0,0.5,0,0.8-0.1c2-0.2,3.9-0.4,5.8-0.6c0.4,0,0.8-0.1,1.1-0.1c1.9-0.2,3.8-0.5,5.6-0.8c0,0,0,0,0,0c1.9-0.3,3.7-0.6,5.4-0.9
			c0.2,0,0.4-0.1,0.6-0.1c0,0,0,0,0.1,0c24.1-4.1,39.8-10.9,39.8-18.5C189.9,85.2,180.4,79.8,164.9,75.7z M15.1,91.1
			c0-2.2,3.7-4.2,10.2-6c0.7,4.5,2.2,8.9,4.5,13C20.5,96.2,15.1,93.7,15.1,91.1z M160.1,98.2c2.5-4.2,4-8.5,4.7-13
			c6.4,1.8,10.1,3.8,10.1,5.9C174.8,93.7,169.4,96.2,160.1,98.2z"/>
		
			<linearGradient id="SVGID_00000109709540852000800400000002785598508671909542_" gradientUnits="userSpaceOnUse" x1="57.9202" y1="62.5071" x2="57.9202" y2="130.0347">
			<stop  offset="0" style="stop-color:#00A99D"/>
			<stop  offset="1" style="stop-color:#39566B"/>
		</linearGradient>
		<circle style="fill:url(#SVGID_00000109709540852000800400000002785598508671909542_);" cx="57.9" cy="17.3" r="17.3"/>
		
			<linearGradient id="SVGID_00000178193716266920317450000009195208980272983717_" gradientUnits="userSpaceOnUse" x1="104.481" y1="62.5071" x2="104.481" y2="130.0347">
			<stop  offset="0" style="stop-color:#00A99D"/>
			<stop  offset="1" style="stop-color:#39566B"/>
		</linearGradient>
		<circle style="fill:url(#SVGID_00000178193716266920317450000009195208980272983717_);" cx="104.5" cy="26.9" r="13.5"/>
	</g>
</g>
</svg>
