<?xml version="1.0" encoding="utf-8"?>
<!-- Generator: Adobe Illustrator 26.0.1, SVG Export Plug-In . SVG Version: 6.00 Build 0)  -->
<svg version="1.1" id="Layer_1" xmlns="http://www.w3.org/2000/svg" xmlns:xlink="http://www.w3.org/1999/xlink" x="0px" y="0px"
	 viewBox="0 0 590.6 165.4" style="enable-background:new 0 0 590.6 165.4;" xml:space="preserve">
<style type="text/css">
	.st0{fill:url(#SVGID_1_);}
	.st1{fill:url(#SVGID_00000031895575787147023560000012625988436340996737_);}
	.st2{fill:url(#SVGID_00000108311033537189418680000016726620734487340969_);}
	.st3{fill:url(#SVGID_00000142862868866209128970000000382284053003004816_);}
	.st4{fill:url(#SVGID_00000019667083240012968560000001436988290899743874_);}
	.st5{fill:url(#SVGID_00000065069533505347990470000014700293779538009248_);}
	.st6{fill:url(#SVGID_00000132055786113485966100000016686160126258498444_);}
	.st7{fill:url(#SVGID_00000049195918199219799850000006114033342345218969_);}
	.st8{fill:url(#SVGID_00000003825653094827978570000000348655881383134369_);}
	.st9{fill:url(#SVGID_00000053512479688764577350000016634150766818901420_);}
	.st10{fill:url(#SVGID_00000021085167723529546380000004401780767847338923_);}
	.st11{fill:url(#SVGID_00000136374236654014862140000001102832541379439497_);}
	.st12{fill:url(#SVGID_00000122688635937114961870000009877642895644895675_);}
	.st13{fill:url(#SVGID_00000142137927335933546400000009761450731132166289_);}
</style>
<g>
	<g>
		<linearGradient id="SVGID_1_" gradientUnits="userSpaceOnUse" x1="236.7772" y1="62.5071" x2="236.7772" y2="130.0347">
			<stop  offset="0" style="stop-color:#00A99D"/>
			<stop  offset="1" style="stop-color:#39566B"/>
		</linearGradient>
		<path class="st0" d="M210.5,88.4c0-4.5,0.8-8.5,2.3-11.9c1.5-3.5,3.6-6.4,6.2-8.8c2.7-2.4,5.9-4.2,9.6-5.4
			c3.8-1.2,7.9-1.9,12.4-1.9c5.5,0,9.8,0.6,12.8,1.8c3.1,1.2,5.3,2.5,6.7,3.8c0.8,0.9,1.5,1.9,1.9,2.9c0.5,1,0.7,2.2,0.7,3.6
			c0,1.4-0.2,2.7-0.6,3.8c-0.4,1.2-0.9,2.2-1.5,3.2c-0.6,0.9-1.2,1.7-1.7,2.3c-0.5,0.6-1,1.1-1.2,1.4c-1.6-0.7-3.4-1.4-5.6-2.1
			c-2.2-0.6-4.6-1-7.3-1c-3.5,0-6.4,1-8.9,3c-2.4,2-3.6,5.4-3.6,10v39.1h-22.1V88.4z"/>
		
			<linearGradient id="SVGID_00000147929908078111882000000012183035336302759340_" gradientUnits="userSpaceOnUse" x1="305.1825" y1="62.5071" x2="305.1825" y2="130.0347">
			<stop  offset="0" style="stop-color:#00A99D"/>
			<stop  offset="1" style="stop-color:#39566B"/>
		</linearGradient>
		<path style="fill:url(#SVGID_00000147929908078111882000000012183035336302759340_);" d="M266.5,97.3c0-5.3,1-10.2,3-14.7
			c2-4.5,4.8-8.4,8.3-11.7c3.5-3.3,7.6-5.9,12.3-7.8c4.7-1.9,9.7-2.8,15.1-2.8c5.3,0,10.3,0.9,15,2.8c4.7,1.9,8.8,4.5,12.4,7.8
			c3.5,3.3,6.3,7.2,8.3,11.7c2,4.5,3,9.4,3,14.7c0,5.3-1,10.2-3,14.7c-2,4.5-4.8,8.4-8.3,11.7c-3.5,3.3-7.6,5.9-12.4,7.8
			c-4.7,1.9-9.7,2.8-15,2.8c-5.4,0-10.4-0.9-15.1-2.8s-8.8-4.5-12.3-7.8c-3.5-3.3-6.3-7.2-8.3-11.7
			C267.5,107.5,266.5,102.6,266.5,97.3z M305.2,114.5c2.3,0,4.4-0.4,6.4-1.3c2-0.9,3.7-2.1,5.1-3.6c1.5-1.5,2.6-3.3,3.4-5.4
			c0.8-2.1,1.2-4.4,1.2-6.9s-0.4-4.8-1.2-6.9c-0.8-2.1-1.9-3.9-3.4-5.4c-1.5-1.5-3.2-2.7-5.1-3.6c-2-0.9-4.1-1.3-6.4-1.3
			c-2.4,0-4.5,0.4-6.4,1.3c-1.9,0.9-3.6,2.1-5.1,3.6c-1.5,1.5-2.6,3.3-3.4,5.4c-0.8,2.1-1.2,4.4-1.2,6.9s0.4,4.8,1.2,6.9
			c0.8,2.1,1.9,3.9,3.4,5.4c1.5,1.5,3.2,2.7,5.1,3.6C300.7,114,302.8,114.5,305.2,114.5z"/>
		
			<linearGradient id="SVGID_00000125602442699796325150000011710077647660984508_" gradientUnits="userSpaceOnUse" x1="389.0934" y1="62.5071" x2="389.0934" y2="130.0347">
			<stop  offset="0" style="stop-color:#00A99D"/>
			<stop  offset="1" style="stop-color:#39566B"/>
		</linearGradient>
		<path style="fill:url(#SVGID_00000125602442699796325150000011710077647660984508_);" d="M354.2,89.9c0-4.8,0.9-9,2.7-12.7
			c1.8-3.7,4.3-6.8,7.5-9.3c3.2-2.5,6.9-4.3,11.1-5.6c4.2-1.3,8.7-1.9,13.6-1.9c4.8,0,9.3,0.6,13.5,1.9c4.3,1.3,8,3.2,11.1,5.6
			c3.2,2.5,5.6,5.6,7.5,9.3c1.8,3.7,2.7,7.9,2.7,12.7v42.4h-22.1V95c0-4.8-1.1-8.4-3.3-10.8c-2.2-2.3-5.4-3.5-9.5-3.5
			c-8.6,0-12.9,4.8-12.9,14.3v37.3h-22.1V89.9z"/>
		
			<linearGradient id="SVGID_00000151542142396545527290000009350762193579185563_" gradientUnits="userSpaceOnUse" x1="474.3761" y1="62.5071" x2="474.3761" y2="130.0347">
			<stop  offset="0" style="stop-color:#00A99D"/>
			<stop  offset="1" style="stop-color:#39566B"/>
		</linearGradient>
		<path style="fill:url(#SVGID_00000151542142396545527290000009350762193579185563_);" d="M512.4,94.1c0,5.9-0.6,10.9-1.8,15.2
			c-1.2,4.3-2.9,7.9-5.1,10.8c-3.5,4.6-7.9,8.1-13.3,10.4c-5.4,2.4-11.4,3.6-18,3.6c-5.4,0-10.4-0.9-15-2.7c-4.6-1.8-8.6-4.3-12-7.5
			c-3.4-3.2-6-7.1-8-11.7c-1.9-4.6-2.9-9.6-2.9-15.1c0-5.6,0.9-10.6,2.7-15.2c1.8-4.5,4.2-8.4,7.3-11.6c3.1-3.2,6.7-5.7,10.8-7.5
			s8.5-2.7,13.2-2.7c5.1,0,9.4,0.8,12.7,2.5c3.3,1.7,5.8,3.4,7.5,5v-27c0-3.6,1.1-6.1,3.2-7.5c2.1-1.5,4.9-2.2,8.4-2.2
			c2.5,0,4.7,0.3,6.7,0.9c2,0.6,3.2,1,3.8,1.2V94.1z M474.8,113.9c4.6,0,8.3-1.5,11.3-4.4c3-2.9,4.5-7,4.5-12.1
			c0-2.4-0.4-4.6-1.2-6.7c-0.8-2.1-1.9-3.8-3.3-5.4c-1.4-1.5-3.1-2.7-5-3.6c-1.9-0.9-4-1.3-6.3-1.3c-4.6,0-8.3,1.6-11.3,4.7
			c-3,3.2-4.5,7.2-4.5,12.1c0,4.9,1.5,8.9,4.5,11.9C466.4,112.4,470.2,113.9,474.8,113.9z"/>
		
			<linearGradient id="SVGID_00000144317229448565571520000014980235917101286324_" gradientUnits="userSpaceOnUse" x1="556.5038" y1="62.5071" x2="556.5038" y2="130.0347">
			<stop  offset="0" style="stop-color:#00A99D"/>
			<stop  offset="1" style="stop-color:#39566B"/>
		</linearGradient>
		<path style="fill:url(#SVGID_00000144317229448565571520000014980235917101286324_);" d="M590.6,131.9c-0.5,0.2-1.8,0.4-3.7,0.6
			c-1.9,0.2-4.3,0.5-7.2,0.8c-2.9,0.3-6.2,0.5-9.9,0.7c-3.7,0.2-7.6,0.3-11.7,0.3c-7,0-12.7-0.6-17.3-1.9c-4.6-1.2-8.2-2.9-11-5
			c-2.7-2.1-4.7-4.5-5.8-7.3c-1.1-2.8-1.6-5.7-1.6-8.9c0-8.4,2.7-14.4,8.1-18c5.4-3.6,14-5.4,25.7-5.4c2.9,0,5.4,0,7.3,0.1
			c2,0.1,3.6,0.2,4.9,0.4c0-3.2-1.3-5.7-3.9-7.5c-2.6-1.8-6.9-2.7-13-2.7c-2.8,0-5.3,0.2-7.5,0.5c-2.2,0.3-4,0.7-5.5,1.2
			c-1.5,0.5-2.7,0.9-3.6,1.4c-0.9,0.5-1.6,0.8-1.9,1.1c-0.2-0.2-0.5-0.5-1.1-1.1c-0.5-0.5-1.1-1.3-1.6-2.1c-0.5-0.9-1.1-1.9-1.5-3
			c-0.5-1.1-0.7-2.3-0.7-3.6c0-8,8.1-11.9,24.4-11.9c5.3,0,10.3,0.5,15,1.4c4.7,1,8.7,2.6,12.1,4.9s6.1,5.4,8.1,9.3
			c2,3.8,3,8.6,3,14.4V131.9z M568.5,103.2c-0.8-0.2-2-0.3-3.6-0.5c-1.6-0.1-4-0.2-7.2-0.2c-2.7,0-5,0.2-6.7,0.7
			c-1.7,0.5-3.1,1.1-4,1.9c-1,0.8-1.6,1.7-2,2.7c-0.4,1-0.5,2.1-0.5,3.2c0,0.8,0.1,1.7,0.4,2.6c0.3,0.9,0.9,1.7,1.8,2.5
			c0.9,0.7,2.3,1.4,4.1,1.9c1.8,0.5,4.3,0.8,7.3,0.8c2.4,0,4.6-0.1,6.6-0.2c2-0.1,3.3-0.3,4-0.5V103.2z"/>
	</g>
	<g>
		
			<linearGradient id="SVGID_00000120522142266992579150000001354245064752906917_" gradientUnits="userSpaceOnUse" x1="94.7152" y1="62.5071" x2="94.7152" y2="130.0347">
			<stop  offset="0" style="stop-color:#00A99D"/>
			<stop  offset="1" style="stop-color:#39566B"/>
		</linearGradient>
		<path style="fill:url(#SVGID_00000120522142266992579150000001354245064752906917_);" d="M47,120.8c11.2,13.3,23.1,26,34.9,38.8
			c7.1,7.7,18.5,7.9,25.6,0.2c11.8-12.7,23.7-25.6,34.8-38.9c-14.4,2.1-30.5,3.2-47.5,3.2C77.8,124.1,61.5,122.9,47,120.8z"/>
		
			<linearGradient id="SVGID_00000064355618278093569190000014997400419794218381_" gradientUnits="userSpaceOnUse" x1="94.9549" y1="62.5071" x2="94.9549" y2="130.0347">
			<stop  offset="0" style="stop-color:#00A99D"/>
			<stop  offset="1" style="stop-color:#39566B"/>
		</linearGradient>
		<path style="fill:url(#SVGID_00000064355618278093569190000014997400419794218381_);" d="M164.9,75.7c-0.9-8.4-4.5-16.7-10.3-23.9
			c-13.9-17.2-37.2-17.1-51.4-0.2c-1.5,1.8-1.4,4.4,0.1,6.1c5.8,6.6,11.7,13.2,17.1,20.2c0.3,0.4,0.6,0.9,0.8,1.5
			c1.4,4.2-3.7,8-7.2,5.3c-0.2-0.2-0.4-0.4-0.6-0.6C103.2,73,93.4,61.5,83.6,50c-11.1-12.9-27.3-14.9-41.3-4.8
			c-10.2,7.3-16.4,18.7-17.4,30.6C9.4,79.8,0,85.2,0,91.1c0,7.6,15.5,14.3,39.4,18.5c0,0,0,0,0,0c0.1,0,0.2,0,0.3,0.1
			c3.7,0.6,7.6,1.2,11.6,1.7c0.3,0,0.5,0.1,0.8,0.1c2,0.2,4.1,0.5,6.2,0.7c0,0,0.1,0,0.1,0c2,0.2,4.1,0.4,6.2,0.6
			c0.3,0,0.7,0.1,1,0.1c2.1,0.2,4.2,0.3,6.4,0.4c0.3,0,0.7,0,1,0.1c2,0.1,4,0.2,6,0.3c0.3,0,0.6,0,0.9,0c2.2,0.1,4.4,0.1,6.6,0.2
			c0.5,0,1,0,1.5,0c2.3,0,4.6,0.1,6.9,0.1c2.3,0,4.5,0,6.8-0.1c0.5,0,1,0,1.5,0c2.2,0,4.4-0.1,6.5-0.2c0.3,0,0.6,0,0.9,0
			c2-0.1,3.9-0.2,5.8-0.3c0.4,0,0.8,0,1.3-0.1c2.1-0.1,4.2-0.3,6.2-0.4c0.4,0,0.8-0.1,1.1-0.1c1.9-0.1,3.7-0.3,5.5-0.5
			c0.3,0,0.5,0,0.8-0.1c2-0.2,3.9-0.4,5.8-0.6c0.4,0,0.8-0.1,1.1-0.1c1.9-0.2,3.8-0.5,5.6-0.8c0,0,0,0,0,0c1.9-0.3,3.7-0.6,5.4-0.9
			c0.2,0,0.4-0.1,0.6-0.1c0,0,0,0,0.1,0c24.1-4.1,39.8-10.9,39.8-18.5C189.9,85.2,180.4,79.8,164.9,75.7z M15.1,91.1
			c0-2.2,3.7-4.2,10.2-6c0.7,4.5,2.2,8.9,4.5,13C20.5,96.2,15.1,93.7,15.1,91.1z M160.1,98.2c2.5-4.2,4-8.5,4.7-13
			c6.4,1.8,10.1,3.8,10.1,5.9C174.8,93.7,169.4,96.2,160.1,98.2z"/>
		
			<linearGradient id="SVGID_00000121274336178947980450000012396086835948995223_" gradientUnits="userSpaceOnUse" x1="57.9202" y1="62.5071" x2="57.9202" y2="130.0347">
			<stop  offset="0" style="stop-color:#00A99D"/>
			<stop  offset="1" style="stop-color:#39566B"/>
		</linearGradient>
		<circle style="fill:url(#SVGID_00000121274336178947980450000012396086835948995223_);" cx="57.9" cy="17.3" r="17.3"/>
		
			<linearGradient id="SVGID_00000106846215953589311480000009136458449752457616_" gradientUnits="userSpaceOnUse" x1="104.481" y1="62.5071" x2="104.481" y2="130.0347">
			<stop  offset="0" style="stop-color:#00A99D"/>
			<stop  offset="1" style="stop-color:#39566B"/>
		</linearGradient>
		<circle style="fill:url(#SVGID_00000106846215953589311480000009136458449752457616_);" cx="104.5" cy="26.9" r="13.5"/>
	</g>
	
		<linearGradient id="SVGID_00000073679500996079186920000006928794057819823282_" gradientUnits="userSpaceOnUse" x1="236.8151" y1="100.4357" x2="236.8151" y2="64.3841">
		<stop  offset="0" style="stop-color:#FFFFFF;stop-opacity:0.5"/>
		<stop  offset="1" style="stop-color:#FFFFFF;stop-opacity:0"/>
	</linearGradient>
	<path style="fill:url(#SVGID_00000073679500996079186920000006928794057819823282_);" d="M260.4,66c-1.4-1.4-3.6-2.7-6.7-3.8
		c-3.1-1.2-7.3-1.8-12.8-1.8c-4.5,0-8.6,0.6-12.4,1.9c-3.8,1.2-7,3-9.6,5.4c-2.7,2.4-4.7,5.3-6.2,8.8c-1.2,2.9-2,6.1-2.2,9.7
		c6.9,1.4,14.3,2.7,22.2,3.9c0.4-3,1.6-5.3,3.4-6.9c2.4-2,5.4-3,8.9-3c2.7,0,5.1,0.3,7.3,1c2.2,0.6,4.1,1.3,5.6,2.1
		c0.3-0.3,0.7-0.7,1.2-1.4c0.5-0.6,1.1-1.4,1.7-2.3c0.6-0.9,1.1-2,1.5-3.2c0.4-1.2,0.6-2.5,0.6-3.8c0-1.4-0.2-2.6-0.7-3.6
		C261.9,67.9,261.3,66.9,260.4,66z"/>
	
		<linearGradient id="SVGID_00000132787329103463241690000011174051953426981776_" gradientUnits="userSpaceOnUse" x1="305.2395" y1="100.4357" x2="305.2395" y2="64.3841">
		<stop  offset="0" style="stop-color:#FFFFFF;stop-opacity:0.5"/>
		<stop  offset="1" style="stop-color:#FFFFFF;stop-opacity:0"/>
	</linearGradient>
	<path style="fill:url(#SVGID_00000132787329103463241690000011174051953426981776_);" d="M332.6,71c-3.5-3.3-7.6-5.9-12.4-7.8
		c-4.7-1.9-9.7-2.8-15-2.8c-5.4,0-10.4,0.9-15.1,2.8c-4.7,1.9-8.8,4.5-12.3,7.8c-3.5,3.3-6.3,7.2-8.3,11.7
		c-1.6,3.7-2.6,7.6-2.9,11.8c7.3,0.8,14.8,1.5,22.6,2.2c0.1-2.2,0.4-4.2,1.1-6.1c0.8-2.1,1.9-3.9,3.4-5.4c1.5-1.5,3.2-2.7,5.1-3.6
		c1.9-0.9,4.1-1.3,6.4-1.3c2.3,0,4.4,0.4,6.4,1.3c2,0.9,3.7,2.1,5.1,3.6c1.5,1.5,2.6,3.3,3.4,5.4c0.8,2.1,1.2,4.4,1.2,6.9
		c0,0.5,0,1-0.1,1.5c7.4,0.4,14.9,0.8,22.6,1.1c0.1-0.9,0.1-1.8,0.1-2.6c0-5.3-1-10.2-3-14.7C338.8,78.1,336.1,74.2,332.6,71z"/>
	
		<linearGradient id="SVGID_00000061455099984109960310000016476611391378639797_" gradientUnits="userSpaceOnUse" x1="389.0933" y1="100.4357" x2="389.0933" y2="64.3841">
		<stop  offset="0" style="stop-color:#FFFFFF;stop-opacity:0.5"/>
		<stop  offset="1" style="stop-color:#FFFFFF;stop-opacity:0"/>
	</linearGradient>
	<path style="fill:url(#SVGID_00000061455099984109960310000016476611391378639797_);" d="M413.8,67.9c-3.2-2.5-6.9-4.3-11.1-5.6
		c-4.3-1.3-8.8-1.9-13.5-1.9c-4.9,0-9.4,0.6-13.6,1.9c-4.2,1.3-7.9,3.2-11.1,5.6c-3.2,2.5-5.7,5.6-7.5,9.3
		c-1.8,3.7-2.7,7.9-2.7,12.7v10.4c7.3,0.2,14.6,0.4,22.1,0.6V95c0-9.5,4.3-14.3,12.9-14.3c4.1,0,7.3,1.2,9.5,3.5
		c2.2,2.3,3.3,5.9,3.3,10.8v6.1c0.3,0,0.7,0,1,0c7.1,0,14.1-0.1,21.1-0.1V89.9c0-4.8-0.9-9-2.7-12.7C419.4,73.5,417,70.4,413.8,67.9
		z"/>
	
		<linearGradient id="SVGID_00000047028048709758087640000016311760268229366974_" gradientUnits="userSpaceOnUse" x1="474.376" y1="100.4357" x2="474.376" y2="64.3841">
		<stop  offset="0" style="stop-color:#FFFFFF;stop-opacity:0.5"/>
		<stop  offset="1" style="stop-color:#FFFFFF;stop-opacity:0"/>
	</linearGradient>
	<path style="fill:url(#SVGID_00000047028048709758087640000016311760268229366974_);" d="M502,31.2c-3.5,0-6.3,0.7-8.4,2.2
		c-2.1,1.5-3.2,4-3.2,7.5v27c-1.6-1.6-4.1-3.3-7.5-5c-3.3-1.7-7.6-2.5-12.7-2.5c-4.7,0-9.1,0.9-13.2,2.7s-7.7,4.3-10.8,7.5
		c-3.1,3.2-5.5,7.1-7.3,11.6c-1.8,4.5-2.7,9.6-2.7,15.2c0,1.2,0.1,2.3,0.1,3.4c7.7-0.2,15.2-0.4,22.7-0.7c-0.1-0.8-0.2-1.7-0.2-2.6
		c0-4.9,1.5-9,4.5-12.1c3-3.2,6.7-4.7,11.3-4.7c2.3,0,4.4,0.4,6.3,1.3c1.9,0.9,3.6,2.1,5,3.6c1.4,1.5,2.5,3.3,3.3,5.4
		c0.8,2.1,1.2,4.3,1.2,6.7c0,0.4,0,0.7,0,1.1c7.4-0.5,14.7-1,21.8-1.6c0-0.9,0.1-1.8,0.1-2.8V33.2c-0.5-0.2-1.8-0.6-3.8-1.2
		C506.6,31.5,504.4,31.2,502,31.2z"/>
	
		<linearGradient id="SVGID_00000151502432447540901560000016859192859019416509_" gradientUnits="userSpaceOnUse" x1="559.0143" y1="100.4357" x2="559.0143" y2="64.3841">
		<stop  offset="0" style="stop-color:#FFFFFF;stop-opacity:0.5"/>
		<stop  offset="1" style="stop-color:#FFFFFF;stop-opacity:0"/>
	</linearGradient>
	<path style="fill:url(#SVGID_00000151502432447540901560000016859192859019416509_);" d="M587.7,76c-2-3.8-4.7-6.9-8.1-9.3
		s-7.5-4-12.1-4.9c-4.7-1-9.7-1.4-15-1.4c-16.3,0-24.4,4-24.4,11.9c0,1.3,0.2,2.5,0.7,3.6c0.5,1.1,1,2.1,1.5,3
		c0.5,0.9,1.1,1.6,1.6,2.1c0.5,0.5,0.9,0.9,1.1,1.1c0.4-0.3,1-0.6,1.9-1.1c0.9-0.5,2.1-0.9,3.6-1.4c1.5-0.5,3.3-0.8,5.5-1.2
		c2.1-0.3,4.6-0.5,7.5-0.5c6,0,10.4,0.9,13,2.7c2.6,1.8,3.9,4.3,3.9,7.5c-1.3-0.2-2.9-0.3-4.9-0.4c-2-0.1-4.4-0.1-7.3-0.1
		c-11.7,0-20.3,1.8-25.7,5.4c-1.1,0.7-2.1,1.6-2.9,2.5c23.8-2.3,45-5.2,62.9-8.6C590.2,82.8,589.2,79.1,587.7,76z"/>
</g>
</svg>
